<?xml version="1.0" encoding="utf-8"?>
<!-- Generator: Adobe Illustrator 16.0.0, SVG Export Plug-In . SVG Version: 6.00 Build 0)  -->
<!DOCTYPE svg PUBLIC "-//W3C//DTD SVG 1.1//EN" "http://www.w3.org/Graphics/SVG/1.1/DTD/svg11.dtd">
<svg version="1.1" id="Layer_1" xmlns="http://www.w3.org/2000/svg" xmlns:xlink="http://www.w3.org/1999/xlink" x="0px" y="0px"
	 width="1800px" height="1800px" viewBox="-100 -100 1800 1800" enable-background="new -100 -100 1800 1800" xml:space="preserve">
<g>
	<path d="M903.564,1447.16h-10.356v77.674h10.356c28.563,0,51.783-17.431,51.783-38.837
		C955.348,1464.59,932.128,1447.16,903.564,1447.16z"/>
	<rect x="706.791" y="1447.16" width="186.417" height="77.674"/>
	<path d="M706.791,1447.16h-10.356c-28.563,0-51.783,17.43-51.783,38.837c0,21.406,23.219,38.837,51.783,38.837h10.356V1447.16z"/>
</g>
<path d="M1056.09,1104.743c-29.981,0-54.371,24.39-54.371,54.372c0,29.981,24.39,54.371,54.371,54.371
	c29.982,0,54.372-24.39,54.372-54.371C1110.462,1129.133,1086.072,1104.743,1056.09,1104.743z"/>
<path d="M207.952,27H37.722c-4.287,0-7.767,3.48-7.767,7.768v62.139c0,4.288,3.48,7.768,7.767,7.768h170.23
	c4.288,0,7.767-3.48,7.767-7.768V34.768C215.719,30.48,212.24,27,207.952,27z"/>
<path d="M395.021,27H240.326c-4.288,0-7.767,3.48-7.767,7.768v62.139c0,4.288,3.479,7.768,7.767,7.768h154.695
	c4.288,0,7.768-3.48,7.768-7.768V34.768C402.789,30.48,399.309,27,395.021,27z"/>
<path d="M1172.066,27h-154.695c-4.287,0-7.768,3.48-7.768,7.768v62.139c0,4.287,3.48,7.768,7.768,7.768h154.695
	c4.287,0,7.768-3.48,7.768-7.768V34.768C1179.834,30.48,1176.354,27,1172.066,27z"/>
<path d="M1377.208,27h-170.229c-4.287,0-7.768,3.48-7.768,7.768v62.139c0,4.287,3.48,7.768,7.768,7.768h170.229
	c4.288,0,7.767-3.48,7.767-7.768V34.768C1384.975,30.48,1381.496,27,1377.208,27z"/>
<path d="M1564.277,27h-154.695c-4.287,0-7.768,3.48-7.768,7.768v62.139c0,4.287,3.48,7.768,7.768,7.768h154.695
	c4.287,0,7.768-3.48,7.768-7.768V34.768C1572.045,30.48,1568.564,27,1564.277,27z"/>
<path d="M201.952,132H31.722c-4.287,0-7.767,3.48-7.767,7.768v62.139c0,4.287,3.48,7.768,7.767,7.768h170.23
	c4.288,0,7.767-3.48,7.767-7.768v-62.139C209.719,135.48,206.24,132,201.952,132z"/>
<path d="M389.021,132H234.326c-4.288,0-7.767,3.48-7.767,7.768v62.139c0,4.287,3.479,7.768,7.767,7.768h154.695
	c4.288,0,7.768-3.48,7.768-7.768v-62.139C396.789,135.48,393.309,132,389.021,132z"/>
<path d="M594.163,132h-170.23c-4.287,0-7.767,3.48-7.767,7.768v62.139c0,4.287,3.48,7.768,7.767,7.768h170.23
	c4.288,0,7.767-3.48,7.767-7.768v-62.139C601.93,135.48,598.451,132,594.163,132z"/>
<path d="M1166.066,132h-154.695c-4.287,0-7.768,3.48-7.768,7.768v62.139c0,4.287,3.48,7.768,7.768,7.768h154.695
	c4.287,0,7.768-3.48,7.768-7.768v-62.139C1173.834,135.48,1170.354,132,1166.066,132z"/>
<path d="M1371.208,132h-170.229c-4.287,0-7.768,3.48-7.768,7.768v62.139c0,4.287,3.48,7.768,7.768,7.768h170.229
	c4.288,0,7.767-3.48,7.767-7.768v-62.139C1378.975,135.48,1375.496,132,1371.208,132z"/>
<path d="M1558.277,132h-154.695c-4.287,0-7.768,3.48-7.768,7.768v62.139c0,4.287,3.48,7.768,7.768,7.768h154.695
	c4.287,0,7.768-3.48,7.768-7.768v-62.139C1566.045,135.48,1562.564,132,1558.277,132z"/>
<path d="M201.299,232H31.069c-4.287,0-7.767,3.48-7.767,7.768v62.139c0,4.287,3.479,7.768,7.767,7.768h170.23
	c4.287,0,7.768-3.48,7.768-7.768v-62.139C209.067,235.48,205.586,232,201.299,232z"/>
<path d="M388.369,232H233.673c-4.287,0-7.768,3.48-7.768,7.768v62.139c0,4.287,3.48,7.768,7.768,7.768h154.695
	c4.287,0,7.768-3.48,7.768-7.768v-62.139C396.136,235.48,392.656,232,388.369,232z"/>
<path d="M1370.555,232h-170.23c-4.287,0-7.766,3.48-7.766,7.768v62.139c0,4.287,3.479,7.768,7.766,7.768h170.23
	c4.287,0,7.768-3.48,7.768-7.768v-62.139C1378.322,235.48,1374.842,232,1370.555,232z"/>
<path d="M1557.625,232H1402.93c-4.287,0-7.768,3.48-7.768,7.768v62.139c0,4.287,3.48,7.768,7.768,7.768h154.695
	c4.287,0,7.768-3.48,7.768-7.768v-62.139C1565.393,235.48,1561.912,232,1557.625,232z"/>
</svg>
