<?xml version="1.0" encoding="utf-8"?>
<!-- Generator: Adobe Illustrator 16.0.0, SVG Export Plug-In . SVG Version: 6.00 Build 0)  -->
<!DOCTYPE svg PUBLIC "-//W3C//DTD SVG 1.1//EN" "http://www.w3.org/Graphics/SVG/1.1/DTD/svg11.dtd">
<svg version="1.1" id="Livello_1" xmlns="http://www.w3.org/2000/svg" xmlns:xlink="http://www.w3.org/1999/xlink" x="0px" y="0px"
	 width="264px" height="128.005px" viewBox="0 0 264 128.005" enable-background="new 0 0 264 128.005" xml:space="preserve">
<rect x="-223.375" y="-389.508" fill="#FF1D25" width="1280.001" height="799.995"/>
<g id="XMLID_3_" display="none" opacity="0.1">
	<g display="inline">
		<polygon fill="#808080" points="285.686,-308.88 416.625,10.492 221.724,272.972 		"/>
		<polygon fill="#666666" points="416.625,10.492 351.146,410.49 221.724,272.972 		"/>
		<polygon fill="#989898" points="351.146,410.49 -174.368,410.49 38.254,78.028 221.724,272.972 		"/>
		<polygon fill="#666666" points="285.686,-308.88 221.724,272.972 38.254,78.028 285.676,-308.868 		"/>
		<polygon fill="#808080" points="285.676,-308.868 38.254,78.028 -174.368,410.49 -71.042,10.492 		"/>
		<polygon fill="#CCCCCC" points="285.676,-308.868 -71.042,10.492 -28.474,-189.507 285.557,-308.833 		"/>
		<polygon fill="#FFFFFF" points="14.094,-389.506 -28.474,-189.507 -71.042,10.492 -82.433,-258.654 		"/>
	</g>
</g>
<rect y="10" fill="#CCCCCC" width="264" height="118.005"/>
<rect fill="#FFFFFF" width="264" height="118.005"/>
<g display="none">
	<path display="inline" fill="#FF1D25" d="M85.686,61.785l0.364,0.286c1.274,0.989,2.809,1.795,4.447,1.795
		c0.702,0,1.82-0.286,1.82-1.17s-0.936-0.962-1.586-1.092l-1.431-0.26c-2.783-0.494-5.124-2.132-5.124-5.202
		c0-4.656,4.24-7.256,8.505-7.256c2.237,0,4.292,0.546,6.216,1.717l-1.924,5.02c-1.222-0.833-2.601-1.483-4.135-1.483
		c-0.625,0-1.535,0.234-1.535,1.041c0,0.728,0.885,0.833,1.431,0.962l1.612,0.364c3.017,0.676,5.202,2.289,5.202,5.618
		c0,4.681-4.265,6.996-8.504,6.996c-2.471,0-5.332-0.676-7.542-1.794L85.686,61.785z"/>
	<path display="inline" fill="#FF1D25" d="M101.657,49.197h6.84l6.398,10.872h0.208c-0.286-1.639-0.598-3.329-0.598-4.994v-5.878
		h6.814v19.61h-6.814l-6.268-10.299h-0.208c0.234,1.353,0.442,2.627,0.442,3.927v6.372h-6.814V49.197z"/>
	<path display="inline" fill="#FF1D25" d="M130.218,68.808h-7.542l6.814-19.61h7.881l6.996,19.61h-7.542l-0.65-2.445h-5.384
		L130.218,68.808z M134.925,61.708l-0.832-3.459c-0.208-0.832-0.338-1.69-0.468-2.522h-0.26l-1.3,5.982H134.925z"/>
	<path display="inline" fill="#FF1D25" d="M145.905,49.197h6.944l-0.156,8.505h0.156c0.156-0.807,0.599-1.509,0.988-2.211
		l3.434-6.294h7.776l-6.138,9.545l6.789,10.065h-8.271l-3.381-5.93c-0.417-0.754-1.041-1.482-1.197-2.289h-0.156l0.156,8.219h-6.944
		V49.197z"/>
	<path display="inline" fill="#FF1D25" d="M167.105,49.197h13.186v5.357h-6.008v1.873h5.488v5.098h-5.488v1.924h6.216v5.358h-13.394
		V49.197z"/>
</g>
</svg>
