<?xml version="1.0" encoding="utf-8"?>
<!-- Generator: Adobe Illustrator 16.0.0, SVG Export Plug-In . SVG Version: 6.00 Build 0)  -->
<!DOCTYPE svg PUBLIC "-//W3C//DTD SVG 1.1//EN" "http://www.w3.org/Graphics/SVG/1.1/DTD/svg11.dtd" [
	<!ENTITY ns_flows "http://ns.adobe.com/Flows/1.0/">
	<!ENTITY ns_extend "http://ns.adobe.com/Extensibility/1.0/">
	<!ENTITY ns_ai "http://ns.adobe.com/AdobeIllustrator/10.0/">
	<!ENTITY ns_graphs "http://ns.adobe.com/Graphs/1.0/">
	<!ENTITY st0 "display:none;fill:#999999;">
	<!ENTITY st1 "opacity:0.6;fill:#FFFFFF;">
	<!ENTITY st2 "display:none;opacity:0.1;">
	<!ENTITY st3 "display:none;fill:#FFFFFF;">
	<!ENTITY st4 "display:inline;fill:#808080;stroke:#FFFFFF;stroke-miterlimit:10;">
	<!ENTITY st5 "fill:#E59A13;">
	<!ENTITY st6 "fill:#E5E5E5;">
	<!ENTITY st7 "display:inline;fill:#FFE200;stroke:#FFFFFF;stroke-miterlimit:10;">
	<!ENTITY st8 "fill:#4D4D4D;">
	<!ENTITY st9 "display:inline;fill:#7AC943;stroke:#FFFFFF;stroke-miterlimit:10;">
	<!ENTITY st10 "fill:#808080;">
	<!ENTITY st11 "clip-path:url(#SVGID_8_);fill:#FFFFFF;">
	<!ENTITY st12 "fill:#B2B2B2;">
	<!ENTITY st13 "display:inline;fill:#FF931E;stroke:#FFFFFF;stroke-miterlimit:10;">
	<!ENTITY st14 "fill:#B3B3B3;">
	<!ENTITY st15 "display:inline;fill:#009245;stroke:#FFFFFF;stroke-miterlimit:10;">
	<!ENTITY st16 "display:inline;fill:#B3B3B3;stroke:#FFFFFF;stroke-miterlimit:10;">
	<!ENTITY st17 "display:inline;fill:#FF1D25;stroke:#FFFFFF;stroke-miterlimit:10;">
	<!ENTITY st18 "fill:#F2F2F2;">
	<!ENTITY st19 "fill:#5A9DFF;">
	<!ENTITY st20 "display:inline;fill:#999999;">
	<!ENTITY st21 "clip-path:url(#SVGID_2_);">
	<!ENTITY st22 "clip-path:url(#SVGID_4_);">
	<!ENTITY st23 "display:inline;fill:#0071BC;stroke:#FFFFFF;stroke-miterlimit:10;">
	<!ENTITY st24 "display:inline;fill:#FFFFFF;">
	<!ENTITY st25 "fill:#2B2D30;">
	<!ENTITY st26 "fill:#989898;">
	<!ENTITY st27 "fill:#999999;">
	<!ENTITY st28 "display:inline;fill:#FF0000;stroke:#FFFFFF;stroke-miterlimit:10;">
	<!ENTITY st29 "display:inline;fill:#666666;stroke:#FFFFFF;stroke-miterlimit:10;">
	<!ENTITY st30 "opacity:0.1;">
	<!ENTITY st31 "fill:#FF7D1E;">
	<!ENTITY st32 "fill:#FFFFFF;">
	<!ENTITY st33 "display:inline;fill:#FBB03B;stroke:#FFFFFF;stroke-miterlimit:10;">
	<!ENTITY st34 "fill:#666666;">
	<!ENTITY st35 "fill:#CBCBCB;">
	<!ENTITY st36 "fill:#CC6119;">
	<!ENTITY st37 "fill:#CCCCCC;">
	<!ENTITY st38 "display:inline;">
	<!ENTITY st39 "display:inline;fill:#CCCCCC;stroke:#FFFFFF;stroke-miterlimit:10;">
	<!ENTITY st40 "display:inline;fill:#29ABE2;stroke:#FFFFFF;stroke-miterlimit:10;">
	<!ENTITY st41 "font-family:'FuturaStd-ExtraBoldOblique';">
	<!ENTITY st42 "clip-path:url(#SVGID_8_);fill:#E6E6E6;">
	<!ENTITY st43 "display:inline;fill:#FFFFFF;stroke:#FFFFFF;stroke-miterlimit:10;">
	<!ENTITY st44 "display:none;fill:#CCCCCC;stroke:#FFFFFF;stroke-miterlimit:10;">
	<!ENTITY st45 "display:inline;opacity:0.3;clip-path:url(#SVGID_6_);">
	<!ENTITY st46 "clip-path:url(#SVGID_8_);fill:#B3B3B3;">
	<!ENTITY st47 "font-size:12;">
	<!ENTITY st48 "display:none;">
	<!ENTITY st49 "display:none;fill:#F2F2F2;">
	<!ENTITY st50 "display:inline;fill:#4D4D4D;stroke:#FFFFFF;stroke-miterlimit:10;">
	<!ENTITY st51 "display:inline;stroke:#FFFFFF;stroke-miterlimit:10;">
]>
<svg version="1.1" id="Livello_1" xmlns:x="&ns_extend;" xmlns:i="&ns_ai;" xmlns:graph="&ns_graphs;"
	 xmlns="http://www.w3.org/2000/svg" xmlns:xlink="http://www.w3.org/1999/xlink" xmlns:a="http://ns.adobe.com/AdobeSVGViewerExtensions/3.0/"
	 x="0px" y="0px" width="1280px" height="800px" viewBox="0 0 1280 800" style="enable-background:new 0 0 1280 800;"
	 xml:space="preserve">
<rect x="0" y="0.002" style="&st49;" width="1280" height="799.995"/>
<g id="XMLID_1_" style="&st30;">
	<g>
		<polygon style="&st8;" points="1280.001,571.235 1280.001,800 1089.901,681.183 		"/>
		<polygon style="&st6;" points="1280.001,334.727 1280.001,571.235 1089.901,681.183 		"/>
		<polygon style="&st10;" points="1280.001,0.004 1280.001,334.727 1169.338,223.829 		"/>
		<polygon style="&st12;" points="1280.001,0.004 1169.338,223.829 1125.562,179.957 		"/>
		<polygon style="&st6;" points="1280.001,0.004 1125.562,179.957 1088.124,0.004 		"/>
		<polygon style="&st12;" points="1280.001,334.727 1089.901,681.183 1029.732,506.204 1049.949,465.323 		"/>
		<polygon style="&st10;" points="1280.001,334.727 1049.949,465.323 1122.147,319.283 		"/>
		<polygon style="&st10;" points="1280.001,334.727 1122.147,319.283 1169.338,223.829 		"/>
		<polygon style="&st10;" points="1280.001,800 884.478,800 1089.901,681.183 		"/>
		<polygon style="&st12;" points="1169.338,223.829 1122.147,319.283 1078.85,315.052 1125.562,179.957 		"/>
		<polygon style="&st35;" points="1088.124,0.004 1125.562,179.957 721.264,0.004 		"/>
		<polygon style="&st12;" points="1125.562,179.957 1078.85,315.052 1055.938,312.803 		"/>
		<polygon style="&st12;" points="1125.562,179.957 1055.938,312.803 960,303.423 		"/>
		<polygon style="&st35;" points="1125.562,179.957 960,303.423 767.686,221.685 		"/>
		<polygon style="&st12;" points="1125.562,179.957 767.686,221.685 721.264,0.004 		"/>
		<polygon style="&st10;" points="1122.147,319.283 1049.949,465.323 1021.268,481.602 1078.85,315.052 		"/>
		<polygon style="&st6;" points="1029.732,506.204 1089.901,681.183 977.841,611.154 		"/>
		<polygon style="&st26;" points="1089.901,681.183 884.478,800 977.841,611.154 		"/>
		<polygon style="&st10;" points="1078.85,315.052 1021.268,481.602 999.963,419.631 1055.938,312.803 		"/>
		<polygon style="&st10;" points="1055.938,312.803 999.963,419.631 960,303.423 		"/>
		<polygon style="&st12;" points="1049.949,465.323 1029.732,506.204 1021.268,481.602 		"/>
		<polygon style="&st12;" points="1021.268,481.602 1029.732,506.204 977.841,611.154 918.9,574.308 999.963,419.631 		"/>
		<polygon style="&st12;" points="960,303.423 999.963,419.631 918.9,574.308 918.81,574.262 		"/>
		<polygon style="&st12;" points="977.841,611.154 884.478,800 918.76,574.563 918.9,574.308 		"/>
		<polygon style="&st26;" points="960,303.423 918.81,574.262 748.048,467.538 		"/>
		<polygon style="&st12;" points="960,303.423 748.048,467.538 748.048,467.526 767.686,221.685 		"/>
		<polygon style="&st25;" points="918.9,574.308 918.76,574.563 918.81,574.262 		"/>
		<polygon style="&st10;" points="748.048,467.538 918.81,574.262 918.76,574.563 839.334,726.134 640,400.002 748.048,467.526 		
			"/>
		<polygon style="&st8;" points="918.76,574.563 884.478,800 839.334,726.134 		"/>
		<polygon style="&st8;" points="839.334,726.134 884.478,800 800.619,800 		"/>
		<polygon style="&st8;" points="839.334,726.134 800.619,800 574.521,800 640,400.002 		"/>
		<polygon style="&st35;" points="721.264,0.004 767.686,221.685 509.061,80.63 		"/>
		<polygon style="&st34;" points="767.686,221.685 748.048,467.526 640,400.002 		"/>
		<polygon style="&st12;" points="767.686,221.685 640,400.002 509.061,80.63 		"/>
		<polygon style="&st6;" points="721.264,0.004 509.061,80.63 508.932,80.677 194.901,200.003 237.469,0.004 		"/>
		<polygon style="&st10;" points="509.061,80.63 640,400.002 445.099,662.481 		"/>
		<polygon style="&st34;" points="640,400.002 574.521,800 445.099,662.481 		"/>
		<polygon style="&st26;" points="574.521,800 49.007,800 261.629,467.538 445.099,662.481 		"/>
		<polygon style="&st34;" points="509.061,80.63 445.099,662.481 261.629,467.538 509.051,80.642 		"/>
		<polygon style="&st37;" points="509.061,80.63 509.051,80.642 508.932,80.677 		"/>
		<polygon style="&st10;" points="509.051,80.642 261.629,467.538 49.007,800 152.333,400.002 		"/>
		<polygon style="&st37;" points="509.051,80.642 152.333,400.002 194.901,200.003 508.932,80.677 		"/>
		<polygon style="&st32;" points="237.469,0.004 194.901,200.003 152.333,400.002 140.942,130.855 		"/>
		<polygon style="&st6;" points="237.469,0.004 140.942,130.855 0,321.915 0,0.004 		"/>
		<polygon style="&st35;" points="140.942,130.855 152.333,400.002 0,321.915 		"/>
		<polygon style="&st12;" points="152.333,400.002 49.007,800 0,800 0,469.485 		"/>
		<polygon style="&st6;" points="152.333,400.002 0,469.485 0,321.915 		"/>
	</g>
</g>
<g style="&st48;">
	<g style="&st38;">
		<path style="&st27;" d="M95.082,41.449c1.977,0,3.579-1.603,3.579-3.579s-1.603-3.578-3.579-3.578s-3.579,1.602-3.579,3.578
			S93.105,41.449,95.082,41.449"/>
		<path style="&st27;" d="M108.206,51.47c3.607-1.334,4.637-4.516,2.758-6.516c-1.879-2.002-6.759-3.214-11.185-0.607
			c-4.374,2.576-5.035,8.073-3.596,10.844c-0.769,0.69-1.582,1.02-2.133,1.039c-0.476,0.016-0.659-0.288-0.726-0.57
			c-0.053-0.222-0.034-0.455,0.039-0.671l2.629-7.868c0.635-1.9-0.779-3.864-2.782-3.864c-1.664,0-3.145,1.054-3.69,2.626
			c-0.648,1.87-1.441,4.347-1.744,6.073c-0.147,0.847-0.219,1.739-0.168,2.593c-0.917,1.131-2.04,1.657-2.74,1.682
			c-0.477,0.016-0.659-0.288-0.727-0.57c-0.053-0.222-0.033-0.455,0.039-0.671l2.479-7.352h1.418l1.542-4.381h-1.483l1.369-4.062
			h-3.819c-1.333,3.547-5.638,4.062-5.638,4.062l-1.467,4.381h1.168c-0.481,1.494-0.942,3.095-1.156,4.318
			c-0.126,0.724-0.196,1.481-0.183,2.219c-0.915,1.146-1.969,2.034-2.576,2.056c-0.879,0.029-0.758-1.031-0.758-1.031l4.001-11.942
			h-6.82c0,0-0.318,0.825-0.74,2.016c-0.398-1.093-1.296-2.379-3.321-2.379c-3.516,0-6.547,3.637-7.638,6.274
			c-0.471,1.135-0.956,3.086-0.905,4.94l-0.609,1.351c-0.112,0.247-0.359,0.407-0.631,0.407c-0.477,0-0.812-0.471-0.653-0.922
			c0.547-1.554,1.63-4.641,2.009-5.776c0.516-1.546,1.122-6.274-3.304-6.274c-2.984,0-4.961,1.901-5.933,3.14
			c-0.302-1.66-1.323-3.14-4.01-3.14c-6.426,0-6.667,5.759-6.667,5.759l2.606,0.061l0.552-1.686
			c0.107-0.229,0.338-0.376,0.591-0.376c0.45,0,0.765,0.444,0.617,0.868l-3.76,10.814l7.489-0.87l2.173-6.882
			c0,0,0.242-0.739,0.395-1.758c0.633-0.795,1.467-1.709,1.917-1.657c0.788,0.091,0.606,0.879,0.606,0.879s-1,2.91-1.758,5.274
			c-0.758,2.363-0.182,5.516,4.031,5.516c2.754,0,4.42-0.906,5.243-1.534c0.659,0.925,1.73,1.534,3.395,1.534
			c2.498,0,4.265-1.889,5.461-4.002c0.204,2.169,1.256,4.002,3.965,4.002c2.586,0,4.532-1.25,5.544-2.086
			c0.563,1.232,1.639,2.086,3.488,2.086c2.682,0,4.677-1.346,5.654-2.178c0.551,1.281,1.634,2.178,3.529,2.178
			c2.687,0,4.684-1.351,5.659-2.182c2.522,2.599,7.725,3.995,12.965-1.473c0.333-0.348,0.313-0.902-0.044-1.225
			c-0.328-0.296-0.828-0.295-1.15,0.006c-0.906,0.844-2.849,2.357-5.123,2.357c-1.761,0-2.13-1.854-1.83-3.914
			C103.185,52.464,105.583,52.439,108.206,51.47 M66.924,54.713c-1.091-0.484,0.182-3.576,0.697-5.122
			c0.516-1.546,1.213-3.456,2.607-3.122c0.427,0.112,0.582,0.434,0.618,0.771c-0.169,0.517-0.339,1.051-0.499,1.584L68.5,53.652
			C68.5,53.652,68.015,55.198,66.924,54.713 M106.933,47.637c-0.255,1.204-1.943,2.501-4.293,2.49
			c0.292-0.837,0.655-1.603,1.036-2.173C105.296,45.529,107.206,46.35,106.933,47.637"/>
	</g>
</g>
<path style="&st3;" d="M897.558,299.819c-27.565,0-49.912-22.347-49.912-49.912c0-27.563,22.347-49.904,49.912-49.904
	c27.564,0,49.912,22.341,49.912,49.904C947.47,277.473,925.122,299.819,897.558,299.819 M1080.586,439.561
	c-36.59,13.525-70.031,13.864-85.549,13.036c-4.179,28.729,0.963,54.598,25.521,54.598c31.711,0,58.804-21.115,71.441-32.883
	c4.501-4.197,11.475-4.205,16.041-0.085c4.981,4.491,5.26,12.233,0.617,17.079c-73.071,76.254-145.626,56.776-180.798,20.541
	c-13.602,11.592-41.453,30.426-78.913,30.426c-26.425,0-41.529-12.51-49.212-30.376c-13.626,11.601-41.453,30.376-78.854,30.376
	c-25.783,0-40.794-11.911-48.646-29.093c-14.115,11.651-41.258,29.093-77.316,29.093c-37.78,0-52.461-25.562-55.298-55.812
	c-16.683,29.474-41.327,55.812-76.161,55.812c-23.225,0-38.16-8.5-47.345-21.392c-11.482,8.754-34.716,21.392-73.121,21.392
	c-58.752,0-66.79-43.96-56.22-76.928c10.571-32.968,24.518-73.552,24.518-73.552s2.532-10.983-8.451-12.25
	c-6.273-0.726-17.899,12.015-26.729,23.107c-2.128,14.209-5.504,24.509-5.504,24.509l-30.3,95.975l-104.435,12.141l52.437-150.817
	c2.06-5.919-2.339-12.106-8.611-12.106c-3.529,0-6.737,2.043-8.24,5.243l-7.692,23.503l-36.344-0.845
	c0,0,3.376-80.312,92.986-80.312c37.459,0,51.71,20.633,55.915,43.791c13.551-17.274,41.115-43.791,82.737-43.791
	c61.707,0,53.256,65.944,46.071,87.498c-5.285,15.846-20.389,58.895-28.021,80.567c-2.211,6.281,2.448,12.85,9.102,12.85
	c3.799,0,7.243-2.229,8.806-5.682l8.493-18.836c-0.718-25.851,6.053-53.062,12.613-68.899
	c15.213-36.776,57.485-87.498,106.52-87.498c28.249,0,40.769,17.947,46.316,33.178c5.884-16.605,10.325-28.104,10.325-28.104h95.106
	l-55.797,166.539c0,0-1.689,14.799,10.57,14.377c8.46-0.296,23.167-12.682,35.915-28.663c-0.186-10.283,0.785-20.854,2.549-30.941
	c2.981-17.062,9.406-39.385,16.117-60.222h-16.294l20.465-61.09c0,0,60.026-7.184,78.625-56.642h53.256l-19.097,56.642h20.685
	l-21.504,61.09h-19.772L745.543,488.62c-1.014,3.015-1.283,6.273-0.549,9.364c0.945,3.934,3.487,8.173,10.131,7.944
	c9.76-0.338,25.412-7.675,38.211-23.445c-0.7-11.896,0.287-24.348,2.347-36.159c4.213-24.079,15.273-58.617,24.315-84.696
	c7.607-21.926,28.258-36.615,51.466-36.615c27.936,0,47.657,27.38,38.802,53.881L873.6,488.62c-1.014,3.015-1.283,6.273-0.541,9.364
	c0.938,3.934,3.487,8.173,10.123,7.944c7.683-0.271,19.021-4.855,29.744-14.479c-20.069-38.643-10.85-115.292,50.148-151.224
	c61.715-36.354,129.771-19.443,155.976,8.461C1145.256,376.58,1130.887,420.962,1080.586,439.561 M504.888,484.788
	c15.213,6.764,21.976-14.792,21.976-14.792l25.759-67.346c2.229-7.43,4.592-14.884,6.957-22.085
	c-0.515-4.703-2.668-9.178-8.621-10.748c-19.443-4.652-29.161,21.976-36.354,43.537
	C507.421,434.909,489.674,478.026,504.888,484.788 M1062.831,386.103c3.808-17.949-22.829-29.388-45.421,4.425
	c-5.311,7.961-10.376,18.641-14.454,30.308C1035.739,420.987,1059.276,402.895,1062.831,386.103"/>
<text transform="matrix(1 0 0 1 1149.5 54.666)" style="&st0; &st41; &st47;">NATIE/LAB/PAINT</text>
<g style="&st48;">
	<circle style="&st17;" cx="36.984" cy="739.562" r="11.612"/>
	<circle style="&st9;" cx="67.828" cy="739.562" r="11.612"/>
	<circle style="&st23;" cx="98.672" cy="739.562" r="11.612"/>
	<circle style="&st13;" cx="129.515" cy="739.562" r="11.612"/>
	<circle style="&st7;" cx="160.359" cy="739.562" r="11.612"/>
	<circle style="&st40;" cx="191.202" cy="739.562" r="11.612"/>
	<circle style="&st15;" cx="222.046" cy="739.562" r="11.612"/>
	<circle style="&st33;" cx="252.89" cy="739.562" r="11.612"/>
	<circle style="&st43;" cx="50.586" cy="767.339" r="11.612"/>
	<path style="&st43;" d="M279.03,767.34c0,6.41-5.19,11.61-11.61,11.61c-2.66,0-5.12-0.9-7.08-2.41c-0.79-0.61-1.51-1.33-2.12-2.12
		c-1.51-1.96-2.41-4.41-2.41-7.08c0-6.41,5.2-11.61,11.61-11.61c2.67,0,5.12,0.9,7.08,2.41c0.8,0.61,1.51,1.33,2.12,2.12
		C278.13,762.22,279.03,764.67,279.03,767.34z"/>
	<circle style="&st39;" cx="81.43" cy="767.339" r="11.612"/>
	<circle style="&st16;" cx="112.273" cy="767.339" r="11.612"/>
	<circle style="&st4;" cx="143.117" cy="767.339" r="11.612"/>
	<circle style="&st29;" cx="173.961" cy="767.339" r="11.612"/>
	<circle style="&st50;" cx="204.804" cy="767.339" r="11.612"/>
	<circle style="&st51;" cx="235.648" cy="767.339" r="11.612"/>
	<path style="&st28;" d="M276.62,760.26l-16.28,16.28c-0.79-0.61-1.51-1.33-2.12-2.12l16.28-16.28
		C275.3,758.75,276.01,759.47,276.62,760.26z"/>
</g>
<path style="&st0;" d="M1234.2,738.915c-8.569,0-15.517,6.947-15.517,15.517c0,8.57,6.947,15.518,15.517,15.518
	s15.518-6.947,15.518-15.518C1249.718,745.86,1242.77,738.915,1234.2,738.915 M1239.991,751.938l0.009,0.366
	c0,3.733-2.842,8.037-8.038,8.037c-1.594,0-3.079-0.468-4.329-1.27c0.221,0.025,0.446,0.04,0.674,0.04
	c1.323,0,2.541-0.452,3.509-1.209c-1.237-0.022-2.279-0.841-2.64-1.962c0.174,0.033,0.349,0.049,0.532,0.049
	c0.258,0,0.508-0.032,0.744-0.098c-1.292-0.261-2.267-1.401-2.267-2.769v-0.036c0.383,0.212,0.816,0.338,1.279,0.354
	c-0.757-0.506-1.256-1.371-1.256-2.351c0-0.518,0.139-1.002,0.382-1.419c1.393,1.709,3.476,2.833,5.822,2.95
	c-0.048-0.205-0.073-0.423-0.073-0.644c0-1.559,1.266-2.824,2.826-2.824c0.811,0,1.546,0.343,2.062,0.893
	c0.643-0.127,1.248-0.363,1.794-0.686c-0.212,0.659-0.658,1.213-1.242,1.563c0.569-0.067,1.116-0.221,1.622-0.445
	C1241.024,751.045,1240.543,751.543,1239.991,751.938"/>
<path style="&st0;" d="M1191.157,738.914c-8.57,0-15.519,6.948-15.519,15.519c0,8.568,6.948,15.517,15.519,15.517
	c8.569,0,15.517-6.948,15.517-15.517C1206.674,745.86,1199.727,738.914,1191.157,738.914 M1194.28,754.431l-1.98,0.002l-0.001,7.249
	h-2.717v-7.249h-1.812v-2.498l1.812-0.002l-0.003-1.471c0-2.039,0.552-3.279,2.952-3.279h2v2.5h-1.251c-0.936,0-0.98,0.349-0.98,1
	l-0.003,1.25h2.247L1194.28,754.431z"/>
<path style="&st0;" d="M1147.824,738.914c-8.57,0-15.519,6.948-15.519,15.519c0,8.568,6.948,15.517,15.519,15.517
	c8.568,0,15.517-6.948,15.517-15.517C1163.341,745.86,1156.393,738.914,1147.824,738.914z M1147.823,762.077l-4.706-4.705h3.227
	v-0.001l0.001-9.105c0-0.409,0.165-0.778,0.433-1.046s0.638-0.433,1.046-0.433c0.817,0,1.479,0.661,1.479,1.479l-0.002,9.105v0.001
	h3.228L1147.823,762.077z"/>
<rect x="443.996" y="727.95" style="&st3;" width="68" height="51"/>
<rect x="518.996" y="727.95" style="&st3;" width="68" height="51"/>
<rect x="593.996" y="727.95" style="&st3;" width="68" height="51"/>
<rect x="668.996" y="727.95" style="&st3;" width="68" height="51"/>
<rect x="743.996" y="727.95" style="&st3;" width="68" height="51"/>
<rect x="819.466" y="716.949" style="&st44;" width="68" height="51"/>
<path style="&st0;" d="M477.996,764.392c-0.22,0-0.431-0.092-0.581-0.254l-9.36-10.089c-0.002-0.002-0.005-0.005-0.007-0.008
	c-1.136-1.258-1.762-2.925-1.762-4.694s0.625-3.437,1.762-4.694l0.142-0.157c1.157-1.28,2.701-1.986,4.348-1.986
	s3.192,0.706,4.349,1.986l1.109,1.229l1.109-1.229c1.157-1.28,2.701-1.986,4.349-1.986s3.192,0.706,4.349,1.986l0.142,0.157
	c1.136,1.258,1.762,2.925,1.762,4.694s-0.626,3.437-1.762,4.694c-0.002,0.003-0.004,0.006-0.007,0.008l-9.36,10.089
	C478.427,764.3,478.217,764.392,477.996,764.392L477.996,764.392z"/>
<path style="&st48;" d="M466.741,756.089"/>
<g style="&st48;">
	<polygon style="&st20;" points="552.997,767.067 549.082,765.065 556.959,765.065 	"/>
	<polygon style="&st20;" points="556.959,761.265 556.959,763.124 549.082,763.124 549.082,761.189 556.969,761.189 	"/>
	<path style="&st20;" d="M552.996,739.833c-5.365,0-9.706,4.342-9.706,9.707c0,3.262,1.601,6.142,4.066,7.896
		c0.748,0.444,1.165,1.138,1.413,1.811h8.539c0.645-1.686,1.954-2.293,1.954-2.293c2.104-1.784,3.44-4.436,3.44-7.413
		C562.703,744.175,558.352,739.833,552.996,739.833z M559.793,749.625c-0.541,0-0.978-0.428-0.978-0.966
		c0-2.958-2.662-4.948-4.853-4.948c-0.532,0-0.966-0.427-0.966-0.968c0-0.539,0.435-0.965,0.966-0.965
		c3.336,0,6.796,2.453,6.796,6.881C560.759,749.197,560.322,749.625,559.793,749.625z"/>
	<path style="&st20;" d="M559.262,756.953"/>
	<path style="&st20;" d="M553.962,741.777"/>
</g>
<g style="&st48;">
	<path style="&st20;" d="M637.714,749.37v-2.847h-1.727c-0.601-1.938-2.41-3.348-4.542-3.348c-2.621,0-4.754,2.132-4.754,4.754
		c0,1.713,0.91,3.217,2.272,4.054c-0.451,0.088-0.917,0.134-1.392,0.134c-2.353,0-4.49-1.112-5.717-2.975l-0.445-0.677l-0.576,0.568
		c-1.646,1.625-2.553,3.752-2.553,5.989c0,4.798,4.168,8.701,9.292,8.701c5.124,0,9.292-3.903,9.292-8.701
		c0-1.635-0.486-3.209-1.389-4.573c0.21-0.334,0.38-0.697,0.502-1.08H637.714z M632.147,747.63c-0.507,0-0.917-0.41-0.917-0.917
		s0.411-0.917,0.917-0.917c0.506,0,0.917,0.41,0.917,0.917S632.653,747.63,632.147,747.63L632.147,747.63z M632.147,747.63"/>
</g>
<path style="&st44;" d="M333.164,779.057h-35.956c-6.601,0-11.953-5.352-11.953-11.952l0,0c0-6.602,5.352-11.953,11.953-11.953
	h35.956c6.601,0,11.952,5.352,11.952,11.953l0,0C345.116,773.705,339.765,779.057,333.164,779.057z"/>
<g style="&st48;">
	<path style="&st24;" d="M306.439,763.163l-0.68,4.334c-0.34,2.138-1.837,3.109-3.887,3.109c-2.051,0-3.236-0.972-2.896-3.109
		l0.681-4.334h2.663l-0.642,4.082c-0.087,0.573-0.155,1.078,0.554,1.078c0.71,0,0.816-0.505,0.904-1.078l0.642-4.082H306.439z"/>
	<path style="&st24;" d="M307.581,763.163h2.556l1.75,4.062h0.078c-0.009-0.612-0.029-1.244,0.078-1.866l0.34-2.196h2.546
		l-1.156,7.327h-2.546l-1.73-3.848h-0.078c0,0.505,0.009,0.981-0.068,1.467l-0.379,2.381h-2.546L307.581,763.163z"/>
	<path style="&st24;" d="M316.119,763.163h2.711c2.458,0,4.179,1.078,3.751,3.771c-0.35,2.177-2.1,3.557-4.247,3.557h-3.373
		L316.119,763.163z M317.975,768.294h0.166c0.884,0,1.623-0.407,1.778-1.37c0.165-1.03-0.359-1.468-1.332-1.468h-0.165
		L317.975,768.294z"/>
	<path style="&st24;" d="M331.401,766.847c-0.369,2.352-2.411,3.76-4.646,3.76c-2.235,0-3.829-1.408-3.46-3.76
		c0.369-2.304,2.43-3.8,4.655-3.8C330.176,763.047,331.77,764.543,331.401,766.847z M325.978,766.886
		c-0.136,0.835,0.34,1.408,1.147,1.408s1.458-0.573,1.594-1.408c0.117-0.778-0.302-1.43-1.147-1.43
		C326.726,765.456,326.095,766.107,325.978,766.886z"/>
</g>
<path style="&st0;" d="M714.893,754.511c0.139-0.588,0.212-1.201,0.212-1.832c0-4.409-3.574-7.983-7.983-7.983
	c-4.247,0-7.72,3.317-7.968,7.503c-0.881-0.841-2.073-1.357-3.388-1.357c-2.283,0-4.202,1.559-4.752,3.67
	c0,0-3.407,0.769-3.407,3.844s1.184,3.845,1.696,3.845h27.359c0.513,0,1.696-0.77,1.696-3.845S714.893,754.511,714.893,754.511
	L714.893,754.511z M714.893,754.511"/>
<path style="&st0;" d="M786.247,753.625c2.09-1.249,2.798-3.948,1.577-6.064c-1.223-2.116-3.914-2.853-6.041-1.666
	c-0.036-2.436-2.02-4.398-4.463-4.398s-4.428,1.963-4.464,4.398c-2.127-1.187-4.818-0.45-6.04,1.667
	c-1.222,2.115-0.514,4.814,1.577,6.063c-2.091,1.249-2.799,3.948-1.577,6.064s3.914,2.853,6.04,1.667
	c0.036,2.435,2.021,4.397,4.464,4.397s4.427-1.963,4.463-4.397c2.127,1.186,4.819,0.449,6.041-1.667
	S788.338,754.874,786.247,753.625L786.247,753.625z M777.32,757.714c-2.259,0-4.089-1.83-4.089-4.089s1.83-4.089,4.089-4.089
	c2.258,0,4.089,1.83,4.089,4.089S779.578,757.714,777.32,757.714L777.32,757.714z M777.32,757.714"/>
<path style="&st3;" d="M867.811,735.583c-1.373,0-2.486-1.113-2.486-2.486s1.113-2.485,2.486-2.485s2.486,1.112,2.486,2.485
	S869.184,735.583,867.811,735.583 M876.928,742.544c-1.823,0.674-3.488,0.69-4.262,0.649c-0.208,1.431,0.048,2.72,1.271,2.72
	c1.579,0,2.929-1.052,3.559-1.638c0.224-0.21,0.571-0.21,0.799-0.005c0.248,0.224,0.262,0.609,0.031,0.851
	c-3.641,3.799-7.254,2.828-9.007,1.023c-0.677,0.577-2.064,1.516-3.931,1.516c-1.316,0-2.068-0.623-2.451-1.513
	c-0.679,0.577-2.064,1.513-3.928,1.513c-1.284,0-2.032-0.593-2.423-1.449c-0.703,0.58-2.056,1.449-3.852,1.449
	c-1.882,0-2.613-1.273-2.755-2.78c-0.831,1.469-2.059,2.78-3.793,2.78c-1.157,0-1.901-0.423-2.359-1.065
	c-0.571,0.436-1.729,1.065-3.642,1.065c-2.927,0-3.327-2.189-2.801-3.832c0.526-1.642,1.222-3.664,1.222-3.664
	s0.126-0.547-0.421-0.609c-0.312-0.036-0.892,0.599-1.332,1.15c-0.105,0.708-0.274,1.221-0.274,1.221l-1.509,4.781l-5.202,0.604
	l2.612-7.513c0.103-0.295-0.117-0.603-0.43-0.603c-0.176,0-0.335,0.102-0.41,0.261l-0.383,1.171l-1.811-0.042
	c0,0,0.168-4.001,4.632-4.001c1.866,0,2.576,1.028,2.785,2.182c0.675-0.86,2.048-2.182,4.121-2.182c3.074,0,2.653,3.285,2.295,4.358
	c-0.263,0.79-1.016,2.935-1.396,4.014c-0.11,0.312,0.122,0.64,0.453,0.64c0.189,0,0.361-0.11,0.438-0.282l0.424-0.938
	c-0.036-1.288,0.301-2.644,0.628-3.433c0.758-1.831,2.863-4.358,5.306-4.358c1.407,0,2.031,0.895,2.308,1.653
	c0.293-0.827,0.514-1.4,0.514-1.4h4.738l-2.78,8.296c0,0-0.084,0.737,0.527,0.716c0.421-0.015,1.153-0.632,1.789-1.428
	c-0.01-0.512,0.039-1.038,0.127-1.541c0.148-0.85,0.468-1.962,0.803-3h-0.812l1.02-3.043c0,0,2.99-0.357,3.917-2.821h2.652
	l-0.951,2.821h1.03l-1.071,3.043h-0.984l-1.722,5.106c-0.051,0.15-0.064,0.312-0.027,0.467c0.047,0.196,0.174,0.407,0.505,0.396
	c0.485-0.017,1.266-0.382,1.903-1.168c-0.035-0.593,0.014-1.212,0.116-1.801c0.21-1.199,0.761-2.92,1.212-4.219
	c0.379-1.093,1.407-1.824,2.563-1.824c1.392,0,2.374,1.364,1.933,2.685l-1.826,5.465c-0.051,0.15-0.064,0.312-0.027,0.467
	c0.047,0.196,0.174,0.407,0.505,0.396c0.382-0.013,0.947-0.241,1.481-0.721c-1-1.925-0.541-5.743,2.498-7.533
	c3.074-1.811,6.464-0.969,7.77,0.422C880.148,739.407,879.433,741.617,876.928,742.544 M848.251,744.797
	c0.758,0.337,1.095-0.737,1.095-0.737l1.282-3.354c0.111-0.37,0.229-0.741,0.347-1.1c-0.025-0.234-0.133-0.457-0.429-0.536
	c-0.969-0.231-1.453,1.095-1.812,2.169C848.377,742.312,847.493,744.46,848.251,744.797 M876.043,739.881
	c0.189-0.894-1.137-1.464-2.263,0.221c-0.265,0.396-0.517,0.929-0.72,1.51C874.693,741.619,875.866,740.718,876.043,739.881"/>
</svg>
