<?xml version="1.0" encoding="utf-8"?>
<!-- Generator: Adobe Illustrator 16.0.0, SVG Export Plug-In . SVG Version: 6.00 Build 0)  -->
<!DOCTYPE svg PUBLIC "-//W3C//DTD SVG 1.1//EN" "http://www.w3.org/Graphics/SVG/1.1/DTD/svg11.dtd">
<svg version="1.1" id="Layer_1" xmlns="http://www.w3.org/2000/svg" xmlns:xlink="http://www.w3.org/1999/xlink" x="0px" y="0px"
	 width="1600px" height="1600px" viewBox="0 0 1600 1600" enable-background="new 0 0 1600 1600" xml:space="preserve">
<g>
	<path d="M1509.888,153.599H90.112c-32,0-58.112,26.112-58.112,58.112v1086.72c0,32.256,26.112,58.367,58.112,58.367H134.4v76.801
		h1331.2v-76.801h44.288c32,0,58.112-26.111,58.112-58.111V211.711C1568,179.711,1541.888,153.599,1509.888,153.599z
		 M1414.4,1382.398H185.6v-25.6h1228.8V1382.398z M1516.8,1298.688c0,3.84-3.071,6.912-6.912,6.912H1465.6H134.4H90.112
		c-3.84,0-6.912-3.072-6.912-6.912V211.711c0-3.84,3.072-6.912,6.912-6.912h1419.52c4.097,0,7.168,3.072,7.168,6.912V1298.688z"/>
	<path d="M1095.424,255.999H248.576c-62.976,0-114.176,51.2-114.176,114.176v770.303c0,62.721,51.2,113.92,114.176,113.92h847.104
		c62.721,0,113.92-51.199,113.92-114.176V370.175C1209.6,307.199,1158.4,255.999,1095.424,255.999z M185.6,1140.223V370.175
		c0-34.816,28.16-62.976,62.976-62.976H646.4v896H248.576C213.76,1203.199,185.6,1175.039,185.6,1140.223z M1158.4,1140.223
		c0,34.816-28.16,62.977-62.977,62.977H697.6v-896h397.824c34.816,0,62.977,28.16,62.977,62.976V1140.223z"/>
	<path d="M1363.2,947.199c-70.656,0-128,57.344-128,128s57.344,128,128,128c70.655,0,128-57.344,128-128
		S1433.855,947.199,1363.2,947.199z M1363.2,1152c-42.24,0-76.8-34.561-76.8-76.801s34.56-76.801,76.8-76.801
		c33.28,0,61.439,21.504,72.191,51.201H1414.4c-14.08,0-25.601,11.52-25.601,25.6s11.521,25.6,25.601,25.6h20.991
		C1424.64,1130.496,1396.48,1152,1363.2,1152z"/>
	<path d="M1337.6,768H1235.2v153.6H1337.6h51.2h102.4V768h-102.4H1337.6z M1337.6,870.398H1286.4v-51.199h51.199V870.398z
		 M1440,819.199v51.199h-51.2v-51.199H1440z"/>
	<path d="M1286.4,614.399H1440c14.08,0,25.6-11.52,25.6-25.6s-11.52-25.601-25.6-25.601h-153.6
		c-14.08,0-25.601,11.521-25.601,25.601S1272.32,614.399,1286.4,614.399z"/>
	<path d="M1286.4,537.599H1440c14.08,0,25.6-11.52,25.6-25.6s-11.52-25.6-25.6-25.6h-153.6c-14.08,0-25.601,11.52-25.601,25.6
		S1272.32,537.599,1286.4,537.599z"/>
	<path d="M1286.4,460.799H1440c14.08,0,25.6-11.52,25.6-25.6s-11.52-25.6-25.6-25.6h-153.6c-14.08,0-25.601,11.52-25.601,25.6
		S1272.32,460.799,1286.4,460.799z"/>
	<path d="M1286.4,383.999H1440c14.08,0,25.6-11.52,25.6-25.6s-11.52-25.6-25.6-25.6h-153.6c-14.08,0-25.601,11.52-25.601,25.6
		S1272.32,383.999,1286.4,383.999z"/>
	<path d="M262.4,896c-14.08,0-25.6,11.52-25.6,25.6v179.199c0,14.08,11.52,25.6,25.6,25.6s25.6-11.52,25.6-25.6V921.6
		C288,907.52,276.48,896,262.4,896z"/>
	<path d="M1081.6,383.999c-14.08,0-25.6,11.52-25.6,25.6v179.2c0,14.08,11.52,25.6,25.6,25.6s25.601-11.52,25.601-25.6v-179.2
		C1107.2,395.519,1095.68,383.999,1081.6,383.999z"/>
	<circle cx="979.2" cy="588.799" r="25.6"/>
</g>
</svg>
