<?xml version="1.0" encoding="utf-8"?>
<!-- Generator: Adobe Illustrator 16.0.0, SVG Export Plug-In . SVG Version: 6.00 Build 0)  -->
<!DOCTYPE svg PUBLIC "-//W3C//DTD SVG 1.1//EN" "http://www.w3.org/Graphics/SVG/1.1/DTD/svg11.dtd">
<svg version="1.1" id="Layer_1" xmlns="http://www.w3.org/2000/svg" xmlns:xlink="http://www.w3.org/1999/xlink" x="0px" y="0px"
	 width="1400px" height="1400px" viewBox="66 80 1400 1400" enable-background="new 66 80 1400 1400" xml:space="preserve">
<g>
	<path d="M1189.424,280.8H342.576C279.6,280.8,228.4,332,228.4,394.976v770.303c0,62.721,51.2,113.92,114.176,113.92h847.104
		c62.721,0,113.92-51.199,113.92-114.176V394.976C1303.6,332,1252.4,280.8,1189.424,280.8z M279.6,1165.023V394.976
		c0-34.816,28.16-62.976,62.976-62.976H740.4v896H342.576C307.76,1228,279.6,1199.84,279.6,1165.023z M1252.4,1165.023
		c0,34.816-28.16,62.979-62.978,62.979H791.6v-896h397.824c34.816,0,62.978,28.16,62.978,62.976L1252.4,1165.023L1252.4,1165.023z"
		/>
	<path d="M356.4,920.801c-14.08,0-25.6,11.52-25.6,25.6V1125.6c0,14.08,11.52,25.6,25.6,25.6s25.6-11.52,25.6-25.6V946.4
		C382,932.32,370.48,920.801,356.4,920.801z"/>
	<path d="M1175.6,408.8c-14.08,0-25.6,11.52-25.6,25.6v179.2c0,14.08,11.52,25.601,25.6,25.601s25.602-11.521,25.602-25.601V434.4
		C1201.2,420.32,1189.68,408.8,1175.6,408.8z"/>
	<circle cx="1073.2" cy="613.601" r="25.6"/>
</g>
</svg>
