<?xml version="1.0" encoding="utf-8"?>
<!-- Generator: Adobe Illustrator 16.0.0, SVG Export Plug-In . SVG Version: 6.00 Build 0)  -->
<!DOCTYPE svg PUBLIC "-//W3C//DTD SVG 1.1//EN" "http://www.w3.org/Graphics/SVG/1.1/DTD/svg11.dtd">
<svg version="1.1" xmlns="http://www.w3.org/2000/svg" xmlns:xlink="http://www.w3.org/1999/xlink" x="0px" y="0px"
	 width="1206.929px" height="151.453px" viewBox="0 0 1206.929 151.453" enable-background="new 0 0 1206.929 151.453"
	 xml:space="preserve">
<g id="Layer_1">
	<g display="none">
		<path display="inline" fill="#FFFFFF" d="M44.063,108.884l4.394,3.451c15.372,11.925,33.885,21.65,53.651,21.65
			c8.469,0,21.96-3.451,21.96-14.119s-11.296-11.606-19.138-13.178l-17.256-3.137c-33.571-5.96-61.81-25.727-61.81-62.748
			c0-56.164,51.142-87.536,102.598-87.536c26.982,0,51.766,6.588,74.983,20.708l-23.217,60.553
			c-14.744-10.04-31.373-17.885-49.885-17.885c-7.531,0-18.509,2.823-18.509,12.549c0,8.783,10.668,10.04,17.256,11.61l19.452,4.39
			c36.394,8.159,62.748,27.611,62.748,67.771c0,56.474-51.456,84.398-102.593,84.398c-29.806,0-64.319-8.16-90.987-21.65
			L44.063,108.884z"/>
		<path display="inline" fill="#FFFFFF" d="M236.736-42.967h82.514l77.182,131.147h2.509c-3.452-19.77-7.217-40.16-7.217-60.24
			v-70.908h82.204v236.563h-82.204L316.113,69.353h-2.509c2.823,16.314,5.332,31.69,5.332,47.376v76.867h-82.2V-42.967z"/>
		<path display="inline" fill="#FFFFFF" d="M581.271,193.597h-90.983l82.2-236.563h95.066l84.395,236.563h-90.983l-7.845-29.492
			h-64.947L581.271,193.597z M638.059,107.945l-10.04-41.73c-2.509-10.04-4.076-20.394-5.646-30.434h-3.137l-15.687,72.164H638.059z
			"/>
		<path display="inline" fill="#FFFFFF" d="M770.504-42.967h83.77l-1.881,102.594h1.881c1.881-9.726,7.217-18.199,11.921-26.668
			l41.416-75.925h93.811L927.376,72.176l81.89,121.421h-99.774l-40.784-71.535c-5.021-9.098-12.553-17.881-14.434-27.607h-1.881
			l1.881,99.143h-83.77V-42.967z"/>
		<path display="inline" fill="#FFFFFF" d="M1026.25-42.967h159.067v64.629h-72.474v22.592h66.199v61.492h-66.199v23.217h74.982
			v64.633H1026.25V-42.967z"/>
	</g>
</g>
<g id="Layer_2" display="none">
	<g display="inline">
		<path fill="#FFFFFF" d="M32.741-55.097h119.997c60.86,0,105.815,31.12,105.815,95.788c0,53.252-33.197,86.449-86.107,86.449
			h-48.413v78.499H32.741V-55.097z M124.033,61.438h9.339c16.597,0,34.582-2.766,34.582-23.858
			c0-20.405-19.366-21.443-34.929-21.443h-8.992V61.438z"/>
		<path fill="#FFFFFF" d="M563.6,75.962c0,83.684-64.668,133.828-144.201,133.828c-79.538,0-144.202-50.145-144.202-133.828
			c0-81.957,65.011-135.208,144.202-135.208C498.586-59.247,563.6-5.995,563.6,75.962z M370.639,77.347
			c0,29.74,20.055,50.141,48.76,50.141c28.701,0,48.755-20.4,48.755-50.141c0-27.667-18.674-50.833-48.755-50.833
			C389.312,26.514,370.639,49.68,370.639,77.347z"/>
		<path fill="#FFFFFF" d="M595.805-55.097h90.945l85.068,144.548h2.766c-3.803-21.79-7.953-44.263-7.953-66.395v-78.153h90.604
			V205.64H766.63L683.292,68.7h-2.766c3.111,17.981,5.877,34.928,5.877,52.217v84.723h-90.599V-55.097z"/>
		<path fill="#FFFFFF" d="M1174.384,52.104c-0.689,42.532-0.689,78.149-31.467,111.347c-27.662,30.085-70.199,46.34-110.658,46.34
			c-79.533,0-143.855-49.105-143.855-132.789c0-85.069,62.592-136.248,144.549-136.248c45.301,0,107.545,22.478,127.945,67.087
			l-88.525,32.505c-7.262-13.143-20.746-20.059-35.963-20.059c-33.889,0-52.562,29.047-52.562,60.518
			c0,28.7,17.98,55.675,48.758,55.675c14.871,0,33.891-6.916,38.387-22.824h-42.883V52.104H1174.384z"/>
	</g>
</g>
<g id="Layer_3">
	<g>
		<path fill="#FFFFFF" d="M56.452,149.116H0L51.002,2.336h58.986l52.364,146.78H105.9l-4.867-18.298H60.735L56.452,149.116z
			 M91.688,95.973l-6.229-25.892c-1.557-6.229-2.528-12.654-3.503-18.883h-1.946l-9.733,44.775H91.688z"/>
		<path fill="#FFFFFF" d="M173.477,2.336h64.436c33.094,0,61.125,14.016,61.125,51.002c0,22.191-8.566,31.537-28.421,38.156v1.167
			c2.724,2.142,6.036,4.478,8.955,8.761l31.93,47.693h-61.52l-23.358-47.109h-0.975v47.109h-52.172V2.336z M225.648,67.354h3.697
			c8.762,0,17.521-1.362,17.521-12.264c0-11.29-7.98-12.654-17.131-12.654h-4.088V67.354z"/>
		<path fill="#FFFFFF" d="M321.255,2.336h51.975l-1.165,63.656h1.165c1.169-6.035,4.478-11.292,7.396-16.547l25.697-47.109h58.211
			l-45.946,71.442l50.814,75.337h-61.91l-25.308-44.385c-3.113-5.645-7.786-11.096-8.955-17.13h-1.165l1.165,61.515h-51.975V2.336z"
			/>
		<path fill="#FFFFFF" d="M523.934,149.116h-56.452l51-146.78h58.986l52.364,146.78H573.38l-4.868-18.298h-40.3L523.934,149.116z
			 M559.167,95.973l-6.228-25.892c-1.559-6.229-2.528-12.654-3.508-18.883h-1.944l-9.73,44.775H559.167z"/>
		<path fill="#FFFFFF" d="M640.175,2.336h51.199l47.893,81.372h1.553c-2.143-12.266-4.477-24.917-4.477-37.376V2.336h51.004v146.78
			h-51.004l-46.912-77.089h-1.559c1.748,10.123,3.309,19.664,3.309,29.396v47.693h-51.006V2.336z"/>
		<path fill="#FFFFFF" d="M967.833,76.115c0,47.109-36.402,75.338-81.176,75.338s-81.176-28.229-81.176-75.338
			C805.482,29.978,842.076,0,886.658,0C931.236,0,967.833,29.978,967.833,76.115z M859.207,76.895
			c0,16.741,11.295,28.226,27.451,28.226c16.158,0,27.447-11.484,27.447-28.226c0-15.575-10.51-28.616-27.447-28.616
			S859.207,61.32,859.207,76.895z"/>
		<path fill="#FFFFFF" d="M987.132,2.336h53.338v146.78h-53.338V2.336z"/>
		<path fill="#FFFFFF" d="M1065.597,2.336h54.314c49.25,0,87.018,21.607,87.018,75.53c0,43.606-30.76,71.25-73.779,71.25h-67.553
			V2.336z M1118.937,105.12h3.309c17.717,0,31.344-8.176,31.344-27.448c0-20.635-11.873-29.393-31.344-29.393h-3.309V105.12z"/>
	</g>
</g>
</svg>
