<?xml version="1.0" encoding="utf-8"?>
<!-- Generator: Adobe Illustrator 16.0.0, SVG Export Plug-In . SVG Version: 6.00 Build 0)  -->
<!DOCTYPE svg PUBLIC "-//W3C//DTD SVG 1.1//EN" "http://www.w3.org/Graphics/SVG/1.1/DTD/svg11.dtd">
<svg version="1.1" xmlns="http://www.w3.org/2000/svg" xmlns:xlink="http://www.w3.org/1999/xlink" x="0px" y="0px"
	 width="1141.643px" height="269.037px" viewBox="0 0 1141.643 269.037" enable-background="new 0 0 1141.643 269.037"
	 xml:space="preserve">
<g id="Layer_1">
	<g display="none">
		<path display="inline" fill="#FFFFFF" d="M11.322,168.13l4.394,3.451c15.372,11.925,33.885,21.65,53.651,21.65
			c8.469,0,21.96-3.451,21.96-14.119s-11.296-11.606-19.138-13.178l-17.256-3.137c-33.571-5.96-61.81-25.727-61.81-62.748
			c0-56.164,51.142-87.536,102.598-87.536c26.982,0,51.766,6.588,74.983,20.708l-23.217,60.553
			c-14.744-10.04-31.373-17.885-49.885-17.885c-7.531,0-18.509,2.823-18.509,12.549c0,8.783,10.668,10.04,17.256,11.61l19.452,4.39
			c36.394,8.159,62.748,27.611,62.748,67.771c0,56.474-51.456,84.398-102.593,84.398c-29.806,0-64.319-8.16-90.987-21.65
			L11.322,168.13z"/>
		<path display="inline" fill="#FFFFFF" d="M203.995,16.28h82.514l77.182,131.147h2.509c-3.452-19.77-7.217-40.16-7.217-60.24V16.28
			h82.204v236.563h-82.204L283.372,128.6h-2.509c2.823,16.314,5.332,31.69,5.332,47.376v76.867h-82.2V16.28z"/>
		<path display="inline" fill="#FFFFFF" d="M548.53,252.843h-90.983l82.2-236.563h95.066l84.395,236.563h-90.983l-7.845-29.492
			h-64.947L548.53,252.843z M605.318,167.192l-10.04-41.73c-2.509-10.04-4.076-20.394-5.646-30.434h-3.137l-15.687,72.164H605.318z"
			/>
		<path display="inline" fill="#FFFFFF" d="M737.763,16.28h83.77l-1.881,102.594h1.881c1.881-9.726,7.217-18.199,11.921-26.668
			L874.87,16.28h93.811l-74.045,115.143l81.89,121.421H876.75l-40.784-71.535c-5.021-9.098-12.553-17.881-14.434-27.607h-1.881
			l1.881,99.143h-83.77V16.28z"/>
		<path display="inline" fill="#FFFFFF" d="M993.509,16.28h159.067v64.629h-72.474v22.592h66.199v61.492h-66.199v23.217h74.982
			v64.633H993.509V16.28z"/>
	</g>
</g>
<g id="Layer_2">
	<g>
		<path fill="#FFFFFF" d="M0,4.15h119.997c60.86,0,105.815,31.12,105.815,95.788c0,53.252-33.197,86.449-86.107,86.449H91.292
			v78.499H0V4.15z M91.292,120.685h9.339c16.597,0,34.582-2.766,34.582-23.858c0-20.405-19.366-21.443-34.929-21.443h-8.992V120.685
			z"/>
		<path fill="#FFFFFF" d="M530.858,135.208c0,83.684-64.668,133.828-144.201,133.828c-79.538,0-144.202-50.145-144.202-133.828
			C242.455,53.251,307.466,0,386.657,0C465.845,0,530.858,53.251,530.858,135.208z M337.897,136.593
			c0,29.74,20.055,50.141,48.76,50.141c28.701,0,48.755-20.4,48.755-50.141c0-27.667-18.674-50.833-48.755-50.833
			C356.571,85.761,337.897,108.927,337.897,136.593z"/>
		<path fill="#FFFFFF" d="M563.063,4.15h90.945l85.068,144.548h2.766c-3.803-21.79-7.953-44.263-7.953-66.395V4.15h90.604v260.736
			h-90.604l-83.338-136.939h-2.766c3.111,17.981,5.877,34.928,5.877,52.217v84.723h-90.599V4.15z"/>
		<path fill="#FFFFFF" d="M1141.643,111.35c-0.689,42.532-0.689,78.149-31.467,111.347c-27.662,30.085-70.199,46.34-110.658,46.34
			c-79.533,0-143.855-49.105-143.855-132.789C855.663,51.179,918.254,0,1000.211,0c45.301,0,107.545,22.478,127.945,67.087
			l-88.525,32.505c-7.262-13.143-20.746-20.059-35.963-20.059c-33.889,0-52.562,29.047-52.562,60.518
			c0,28.7,17.98,55.675,48.758,55.675c14.871,0,33.891-6.916,38.387-22.824h-42.883V111.35H1141.643z"/>
	</g>
</g>
</svg>
